<?xml version="1.0" standalone="no"?>
<!DOCTYPE svg PUBLIC "-//W3C//DTD SVG 20010904//EN"
 "http://www.w3.org/TR/2001/REC-SVG-20010904/DTD/svg10.dtd">
<svg version="1.0" xmlns="http://www.w3.org/2000/svg"
 width="790.000000pt" height="790.000000pt" viewBox="0 0 790.000000 790.000000"
 preserveAspectRatio="xMidYMid meet">
<metadata>
Created by potrace 1.14, written by Peter Selinger 2001-2017
</metadata>
<g transform="translate(0.000000,790.000000) scale(0.100000,-0.100000)"
fill="#000000" stroke="none">
<path d="M1495 6603 c-232 -25 -377 -65 -558 -154 -288 -141 -503 -348 -648
-622 -127 -243 -173 -480 -146 -763 42 -445 350 -873 784 -1090 l112 -55 -100
-50 c-409 -205 -688 -560 -775 -984 -24 -120 -26 -425 -3 -491 4 -11 10 -38
13 -59 4 -21 20 -78 36 -126 113 -339 381 -644 712 -810 227 -114 411 -159
668 -164 265 -4 455 36 685 144 294 140 531 362 669 631 42 79 91 198 102 240
2 8 10 40 18 70 9 30 19 82 23 115 12 90 8 362 -5 425 -7 30 -14 64 -16 76
-20 104 -120 328 -198 443 -145 213 -362 396 -605 508 -46 21 -72 38 -63 41
39 13 130 58 203 102 327 193 567 513 655 871 53 213 47 454 -14 667 -124 427
-442 765 -884 940 -77 30 -213 67 -285 77 -22 3 -52 8 -66 11 -32 6 -272 12
-314 7z m283 -542 c159 -32 335 -128 456 -248 103 -103 195 -264 232 -408 20
-79 26 -241 13 -328 -44 -274 -244 -532 -511 -656 -121 -57 -193 -73 -338 -77
-104 -2 -140 1 -216 21 -255 65 -475 244 -588 479 -60 125 -79 212 -80 356 -1
114 2 140 18 208 3 12 8 30 10 40 14 58 84 197 135 266 133 180 346 312 566
350 80 14 225 13 303 -3z m7 -2581 c28 -6 57 -13 67 -15 40 -8 147 -57 220
-102 88 -53 218 -172 264 -243 16 -25 31 -47 34 -50 3 -3 19 -34 37 -70 78
-163 102 -319 77 -488 -49 -329 -277 -596 -606 -710 -95 -33 -113 -36 -233
-38 -126 -2 -187 5 -281 36 -248 81 -461 281 -558 524 -176 440 55 938 516
1116 140 54 331 70 463 40z"/>
<path d="M3313 6532 l-21 -3 -1 -1327 c-1 -730 -3 -1904 -4 -2609 -2 -1135 0
-1283 13 -1284 89 -4 572 0 577 5 4 3 7 221 7 484 l1 477 455 0 455 0 2 255
c1 140 0 264 -2 275 -4 20 -12 20 -457 20 l-453 0 -1 298 c-1 264 1 297 15
298 9 0 280 1 602 1 l586 1 1 191 c0 105 1 210 1 233 l1 43 275 -3 c178 -1
275 2 276 8 4 56 2 2620 -2 2627 -5 8 -403 14 -581 9 -17 -1 -18 -47 -20 -781
l-3 -779 -130 170 c-71 94 -208 273 -302 397 -785 1030 -754 992 -782 993 -99
2 -490 3 -508 1z m777 -1339 c102 -135 259 -342 350 -461 91 -120 230 -302
310 -407 79 -104 171 -226 205 -270 34 -44 64 -85 68 -91 5 -9 -136 -12 -560
-10 l-568 1 0 743 c0 408 2 742 5 741 3 0 88 -111 190 -246z"/>
<path d="M5988 6532 l-58 -3 0 -1319 c0 -1250 1 -1320 18 -1321 9 0 93 0 187
0 152 1 167 0 150 -14 -11 -8 -23 -15 -27 -15 -3 0 -37 -17 -75 -38 -64 -36
-141 -78 -308 -167 -104 -55 -175 -96 -175 -100 0 -5 197 -396 208 -413 6 -9
55 8 198 73 104 48 202 93 218 100 16 8 31 13 35 11 3 -2 6 -457 6 -1010 l0
-1006 35 -1 c173 -4 550 0 558 5 8 5 11 375 11 1259 0 688 0 1266 1 1284 l0
32 360 -1 c199 0 364 2 367 6 5 4 8 404 4 502 l-1 21 -557 1 c-307 0 -572 1
-588 1 l-31 1 1 253 c0 138 3 257 7 262 4 7 156 10 432 10 l426 0 0 265 0 265
-433 0 -432 0 0 262 0 263 30 1 c16 0 276 1 576 1 l546 1 0 259 c0 216 -3 261
-15 265 -14 6 -1572 10 -1674 5z"/>
</g>
</svg>
